<mxfile host="65bd71144e">
    <diagram id="8hG75okedO__Mh4vVQxK" name="Page-1">
        <mxGraphModel dx="1133" dy="740" grid="1" gridSize="10" guides="1" tooltips="1" connect="1" arrows="1" fold="1" page="1" pageScale="1" pageWidth="1100" pageHeight="850" math="0" shadow="1">
            <root>
                <mxCell id="0"/>
                <mxCell id="1" parent="0"/>
                <mxCell id="40" value="1" style="edgeStyle=none;html=1;endArrow=none;endFill=0;fontSize=10;noEdgeStyle=1;orthogonal=1;shape=link;" parent="1" source="95" target="135" edge="1">
                    <mxGeometry relative="1" as="geometry">
                        <mxPoint x="569" y="741.4" as="sourcePoint"/>
                        <mxPoint x="1310" y="1242.4" as="targetPoint"/>
                        <Array as="points"/>
                    </mxGeometry>
                </mxCell>
                <mxCell id="7" value="" style="endArrow=none;html=1;fontSize=10;noEdgeStyle=1;orthogonal=1;" parent="1" source="89" target="95" edge="1">
                    <mxGeometry width="50" height="50" relative="1" as="geometry">
                        <mxPoint x="410.0031892609745" y="670.6022713761087" as="sourcePoint"/>
                        <mxPoint x="470.81818181818187" y="711.4" as="targetPoint"/>
                        <Array as="points"/>
                    </mxGeometry>
                </mxCell>
                <mxCell id="8" value="" style="endArrow=none;html=1;fontSize=10;noEdgeStyle=1;orthogonal=1;" parent="1" source="95" target="88" edge="1">
                    <mxGeometry width="50" height="50" relative="1" as="geometry">
                        <mxPoint x="449" y="741.4" as="sourcePoint"/>
                        <mxPoint x="429" y="741.4" as="targetPoint"/>
                        <Array as="points"/>
                    </mxGeometry>
                </mxCell>
                <mxCell id="24" value="1" style="edgeStyle=none;html=1;endArrow=none;endFill=0;fontSize=10;noEdgeStyle=1;orthogonal=1;" parent="1" source="96" target="100" edge="1">
                    <mxGeometry relative="1" as="geometry">
                        <mxPoint x="521.3529411764706" y="213.75294117647059" as="targetPoint"/>
                        <mxPoint x="519" y="121.39999999999998" as="sourcePoint"/>
                        <Array as="points"/>
                    </mxGeometry>
                </mxCell>
                <mxCell id="51" value="P" style="edgeStyle=none;html=1;fontSize=10;endArrow=none;endFill=0;noEdgeStyle=1;orthogonal=1;" parent="1" source="96" target="99" edge="1">
                    <mxGeometry relative="1" as="geometry">
                        <mxPoint x="579" y="91.39999999999998" as="sourcePoint"/>
                        <mxPoint x="739" y="91.39999999999998" as="targetPoint"/>
                        <Array as="points"/>
                    </mxGeometry>
                </mxCell>
                <mxCell id="12" style="edgeStyle=none;html=1;endArrow=none;endFill=0;fontSize=10;noEdgeStyle=1;orthogonal=1;" parent="1" source="90" target="96" edge="1">
                    <mxGeometry relative="1" as="geometry">
                        <mxPoint x="-250.03530581955943" y="110.62627304101602" as="sourcePoint"/>
                        <mxPoint x="-196" y="151.39999999999998" as="targetPoint"/>
                        <Array as="points"/>
                    </mxGeometry>
                </mxCell>
                <mxCell id="14" style="edgeStyle=none;html=1;endArrow=none;endFill=0;fontSize=10;noEdgeStyle=1;orthogonal=1;" parent="1" source="94" target="96" edge="1">
                    <mxGeometry relative="1" as="geometry">
                        <mxPoint x="-250.14618801394045" y="252.1048275026792" as="sourcePoint"/>
                        <mxPoint x="-211" y="209.39999999999998" as="targetPoint"/>
                        <Array as="points"/>
                    </mxGeometry>
                </mxCell>
                <mxCell id="16" style="edgeStyle=none;html=1;endArrow=none;endFill=0;fontSize=10;noEdgeStyle=1;orthogonal=1;" parent="1" source="93" target="96" edge="1">
                    <mxGeometry relative="1" as="geometry">
                        <mxPoint x="-253.43536723883813" y="167.56578572829892" as="sourcePoint"/>
                        <mxPoint x="-211" y="177.64999999999998" as="targetPoint"/>
                        <Array as="points"/>
                    </mxGeometry>
                </mxCell>
                <mxCell id="25" value="1" style="edgeStyle=none;html=1;endArrow=none;endFill=0;fontSize=10;noEdgeStyle=1;orthogonal=1;shape=link;" parent="1" source="108" target="100" edge="1">
                    <mxGeometry relative="1" as="geometry">
                        <mxPoint x="-371" y="851.4" as="targetPoint"/>
                        <mxPoint x="1179" y="476.4" as="sourcePoint"/>
                        <Array as="points"/>
                    </mxGeometry>
                </mxCell>
                <mxCell id="19" style="edgeStyle=none;html=1;endArrow=none;endFill=0;fontSize=10;noEdgeStyle=1;orthogonal=1;" parent="1" source="101" target="108" edge="1">
                    <mxGeometry relative="1" as="geometry">
                        <mxPoint x="-470.14618801394045" y="880.6951724973209" as="sourcePoint"/>
                        <mxPoint x="1142.333333333333" y="416.4" as="targetPoint"/>
                        <Array as="points"/>
                    </mxGeometry>
                </mxCell>
                <mxCell id="21" style="edgeStyle=none;html=1;endArrow=none;endFill=0;fontSize=10;noEdgeStyle=1;orthogonal=1;" parent="1" source="106" target="108" edge="1">
                    <mxGeometry relative="1" as="geometry">
                        <mxPoint x="-451.0000000000007" y="951.4" as="sourcePoint"/>
                        <mxPoint x="1215.666666666667" y="416.4" as="targetPoint"/>
                        <Array as="points"/>
                    </mxGeometry>
                </mxCell>
                <mxCell id="23" style="edgeStyle=none;html=1;endArrow=none;endFill=0;fontSize=10;noEdgeStyle=1;orthogonal=1;" parent="1" source="105" target="108" edge="1">
                    <mxGeometry relative="1" as="geometry">
                        <mxPoint x="-470.14618801394045" y="1022.1048275026791" as="sourcePoint"/>
                        <mxPoint x="1179" y="416.4" as="targetPoint"/>
                        <Array as="points"/>
                    </mxGeometry>
                </mxCell>
                <mxCell id="31" style="edgeStyle=none;html=1;endArrow=none;endFill=0;fontSize=10;noEdgeStyle=1;orthogonal=1;" parent="1" source="119" target="117" edge="1">
                    <mxGeometry relative="1" as="geometry">
                        <mxPoint x="965" y="682.4" as="sourcePoint"/>
                        <mxPoint x="865" y="772.4" as="targetPoint"/>
                        <Array as="points"/>
                    </mxGeometry>
                </mxCell>
                <mxCell id="32" style="edgeStyle=none;html=1;endArrow=none;endFill=0;fontSize=10;noEdgeStyle=1;orthogonal=1;" parent="1" source="120" target="117" edge="1">
                    <mxGeometry relative="1" as="geometry">
                        <mxPoint x="815.1826448355112" y="656.9704302080742" as="sourcePoint"/>
                        <mxPoint x="895" y="772.4" as="targetPoint"/>
                        <Array as="points"/>
                    </mxGeometry>
                </mxCell>
                <mxCell id="67" value="M" style="edgeStyle=none;html=1;fontSize=10;endArrow=none;endFill=0;noEdgeStyle=1;orthogonal=1;shape=link;" parent="1" source="123" target="121" edge="1">
                    <mxGeometry relative="1" as="geometry">
                        <mxPoint x="815" y="992.4000000000001" as="sourcePoint"/>
                        <mxPoint x="755" y="882.4" as="targetPoint"/>
                    </mxGeometry>
                </mxCell>
                <mxCell id="61" style="edgeStyle=none;html=1;fontSize=10;endArrow=none;endFill=0;noEdgeStyle=1;orthogonal=1;" parent="1" source="128" target="129" edge="1">
                    <mxGeometry relative="1" as="geometry">
                        <mxPoint x="380" y="1172.4" as="sourcePoint"/>
                        <mxPoint x="380" y="1247.7589838486224" as="targetPoint"/>
                    </mxGeometry>
                </mxCell>
                <mxCell id="110" value="M" style="edgeStyle=none;html=1;fontFamily=Helvetica;fontSize=10;fontColor=default;endArrow=none;endFill=0;noEdgeStyle=1;orthogonal=1;" parent="1" source="124" target="99" edge="1">
                    <mxGeometry relative="1" as="geometry">
                        <mxPoint x="1040" y="332.4" as="sourcePoint"/>
                        <Array as="points"/>
                    </mxGeometry>
                </mxCell>
                <mxCell id="72" value="M" style="edgeStyle=none;html=1;fontSize=10;endArrow=none;endFill=0;noEdgeStyle=1;orthogonal=1;" parent="1" source="136" target="134" edge="1">
                    <mxGeometry relative="1" as="geometry">
                        <mxPoint x="1180" y="512.4" as="sourcePoint"/>
                        <mxPoint x="1159.047619047619" y="453.35238095238094" as="targetPoint"/>
                        <Array as="points"/>
                    </mxGeometry>
                </mxCell>
                <mxCell id="41" value="M" style="edgeStyle=none;html=1;endArrow=none;endFill=0;fontSize=10;noEdgeStyle=1;orthogonal=1;shape=link;" parent="1" source="135" target="136" edge="1">
                    <mxGeometry relative="1" as="geometry">
                        <mxPoint x="1350" y="382.4" as="sourcePoint"/>
                        <mxPoint x="1289" y="512.4" as="targetPoint"/>
                        <Array as="points"/>
                    </mxGeometry>
                </mxCell>
                <mxCell id="49" style="edgeStyle=none;html=1;endArrow=none;endFill=0;fontSize=10;noEdgeStyle=1;orthogonal=1;" parent="1" source="138" target="136" edge="1">
                    <mxGeometry relative="1" as="geometry">
                        <mxPoint x="1320" y="642.4" as="sourcePoint"/>
                        <mxPoint x="1300" y="572.4" as="targetPoint"/>
                        <Array as="points"/>
                    </mxGeometry>
                </mxCell>
                <mxCell id="48" style="edgeStyle=none;html=1;endArrow=none;endFill=0;fontSize=10;noEdgeStyle=1;orthogonal=1;" parent="1" source="139" target="136" edge="1">
                    <mxGeometry relative="1" as="geometry">
                        <mxPoint x="1250" y="692.4" as="sourcePoint"/>
                        <mxPoint x="1250" y="572.4" as="targetPoint"/>
                        <Array as="points"/>
                    </mxGeometry>
                </mxCell>
                <mxCell id="47" style="edgeStyle=none;html=1;endArrow=none;endFill=0;fontSize=10;noEdgeStyle=1;orthogonal=1;" parent="1" source="137" target="136" edge="1">
                    <mxGeometry relative="1" as="geometry">
                        <mxPoint x="1358.0384757729337" y="512.4" as="sourcePoint"/>
                        <mxPoint x="1300" y="512.4" as="targetPoint"/>
                        <Array as="points"/>
                    </mxGeometry>
                </mxCell>
                <mxCell id="46" style="edgeStyle=none;html=1;endArrow=none;endFill=0;fontSize=10;noEdgeStyle=1;orthogonal=1;" parent="1" source="140" target="136" edge="1">
                    <mxGeometry relative="1" as="geometry">
                        <mxPoint x="1180" y="632.4" as="sourcePoint"/>
                        <mxPoint x="1180" y="572.4" as="targetPoint"/>
                        <Array as="points"/>
                    </mxGeometry>
                </mxCell>
                <mxCell id="58" style="edgeStyle=none;html=1;fontSize=10;endArrow=none;endFill=0;noEdgeStyle=1;orthogonal=1;" parent="1" target="99" edge="1">
                    <mxGeometry relative="1" as="geometry">
                        <mxPoint x="480" y="350.003505103165" as="sourcePoint"/>
                        <mxPoint x="752.913043478261" y="77.48695652173922" as="targetPoint"/>
                        <Array as="points"/>
                    </mxGeometry>
                </mxCell>
                <mxCell id="63" style="edgeStyle=none;html=1;fontSize=10;endArrow=none;endFill=0;noEdgeStyle=1;orthogonal=1;" parent="1" source="131" target="128" edge="1">
                    <mxGeometry relative="1" as="geometry">
                        <mxPoint x="720" y="340.00350510316525" as="sourcePoint"/>
                        <mxPoint x="340" y="1112.4" as="targetPoint"/>
                        <Array as="points"/>
                    </mxGeometry>
                </mxCell>
                <mxCell id="65" style="edgeStyle=none;html=1;fontSize=10;endArrow=none;endFill=0;noEdgeStyle=1;orthogonal=1;" parent="1" source="149" target="128" edge="1">
                    <mxGeometry relative="1" as="geometry">
                        <mxPoint x="750" y="390.00350510316537" as="sourcePoint"/>
                        <mxPoint x="449" y="1142.4" as="targetPoint"/>
                        <Array as="points"/>
                    </mxGeometry>
                </mxCell>
                <mxCell id="68" value="1" style="edgeStyle=none;html=1;fontSize=10;endArrow=none;endFill=0;noEdgeStyle=1;orthogonal=1;shape=link;" parent="1" source="121" target="117" edge="1">
                    <mxGeometry relative="1" as="geometry">
                        <mxPoint x="820.1308900523561" y="867.5308900523561" as="sourcePoint"/>
                        <mxPoint x="805" y="772.4" as="targetPoint"/>
                    </mxGeometry>
                </mxCell>
                <mxCell id="70" style="edgeStyle=none;html=1;fontSize=10;endArrow=none;endFill=0;noEdgeStyle=1;orthogonal=1;" parent="1" source="126" target="124" edge="1">
                    <mxGeometry relative="1" as="geometry">
                        <mxPoint x="1090" y="152.39999999999998" as="sourcePoint"/>
                        <mxPoint x="1100" y="272.4" as="targetPoint"/>
                        <Array as="points"/>
                    </mxGeometry>
                </mxCell>
                <mxCell id="75" style="edgeStyle=none;html=1;fontSize=10;endArrow=none;endFill=0;noEdgeStyle=1;orthogonal=1;" parent="1" source="127" target="124" edge="1">
                    <mxGeometry relative="1" as="geometry">
                        <mxPoint x="1000" y="152.39999999999998" as="sourcePoint"/>
                        <mxPoint x="1000" y="272.4" as="targetPoint"/>
                        <Array as="points"/>
                    </mxGeometry>
                </mxCell>
                <mxCell id="160" style="edgeStyle=none;html=1;endArrow=none;endFill=0;" edge="1" parent="1" source="88" target="158">
                    <mxGeometry relative="1" as="geometry"/>
                </mxCell>
                <mxCell id="161" style="edgeStyle=none;html=1;endArrow=none;endFill=0;" edge="1" parent="1" source="88" target="157">
                    <mxGeometry relative="1" as="geometry"/>
                </mxCell>
                <mxCell id="162" style="edgeStyle=none;html=1;endArrow=none;endFill=0;" edge="1" parent="1" source="88" target="156">
                    <mxGeometry relative="1" as="geometry"/>
                </mxCell>
                <mxCell id="88" value="Address" style="ellipse;whiteSpace=wrap;html=1;align=center;labelBackgroundColor=none;labelBorderColor=none;fontSize=10;" parent="1" vertex="1">
                    <mxGeometry x="140" y="80.00350510316514" width="100" height="40" as="geometry"/>
                </mxCell>
                <mxCell id="89" value="Name" style="ellipse;whiteSpace=wrap;html=1;align=center;fontStyle=4;labelBackgroundColor=none;labelBorderColor=none;fontSize=10;" parent="1" vertex="1">
                    <mxGeometry x="140" y="140.00350510316514" width="100" height="40" as="geometry"/>
                </mxCell>
                <mxCell id="90" value="Name" style="ellipse;whiteSpace=wrap;html=1;align=center;labelBackgroundColor=none;labelBorderColor=none;fontSize=10;" parent="1" vertex="1">
                    <mxGeometry x="140" y="280.00350510316514" width="100" height="40" as="geometry"/>
                </mxCell>
                <mxCell id="93" value="Date of Birth" style="ellipse;whiteSpace=wrap;align=center;labelBackgroundColor=none;labelBorderColor=none;fontFamily=Helvetica;fontSize=10;fontColor=default;strokeColor=default;fillColor=default;" parent="1" vertex="1">
                    <mxGeometry x="140" y="340.00350510316514" width="100" height="40" as="geometry"/>
                </mxCell>
                <mxCell id="94" value="&lt;u style=&quot;font-size: 10px;&quot;&gt;OHIP Number&lt;/u&gt;" style="ellipse;whiteSpace=wrap;html=1;align=center;fontStyle=4;labelBackgroundColor=none;labelBorderColor=none;fontFamily=Helvetica;fontSize=10;fontColor=default;strokeColor=default;fillColor=default;" parent="1" vertex="1">
                    <mxGeometry x="140" y="220.0035051031652" width="100" height="40" as="geometry"/>
                </mxCell>
                <mxCell id="95" value="Company" style="whiteSpace=wrap;html=1;align=center;labelBackgroundColor=none;labelBorderColor=none;fontFamily=Helvetica;fontSize=10;fontColor=default;strokeColor=default;fillColor=default;" parent="1" vertex="1">
                    <mxGeometry x="280" y="140.00350510316514" width="100" height="40" as="geometry"/>
                </mxCell>
                <mxCell id="96" value="Patient" style="whiteSpace=wrap;html=1;align=center;labelBackgroundColor=none;labelBorderColor=none;fontFamily=Helvetica;fontSize=10;fontColor=default;strokeColor=default;fillColor=default;" parent="1" vertex="1">
                    <mxGeometry x="280" y="280.0035051031652" width="100" height="40" as="geometry"/>
                </mxCell>
                <mxCell id="109" value="N" style="edgeStyle=none;html=1;fontFamily=Helvetica;fontSize=10;fontColor=default;endArrow=none;endFill=0;noEdgeStyle=1;orthogonal=1;" parent="1" source="99" target="136" edge="1">
                    <mxGeometry relative="1" as="geometry">
                        <mxPoint x="1180" y="522.4" as="targetPoint"/>
                        <Array as="points"/>
                    </mxGeometry>
                </mxCell>
                <mxCell id="176" style="edgeStyle=none;html=1;endArrow=none;endFill=0;" edge="1" parent="1" source="99" target="174">
                    <mxGeometry relative="1" as="geometry"/>
                </mxCell>
                <mxCell id="99" value="Vaccination" style="shape=rhombus;perimeter=rhombusPerimeter;whiteSpace=wrap;html=1;align=center;labelBackgroundColor=none;labelBorderColor=none;fontFamily=Helvetica;fontSize=10;fontColor=default;strokeColor=default;fillColor=default;" parent="1" vertex="1">
                    <mxGeometry x="420" y="270.0035051031652" width="120" height="60" as="geometry"/>
                </mxCell>
                <mxCell id="100" value="Has" style="shape=rhombus;perimeter=rhombusPerimeter;whiteSpace=wrap;html=1;align=center;labelBackgroundColor=none;labelBorderColor=none;fontFamily=Helvetica;fontSize=10;fontColor=default;strokeColor=default;fillColor=default;" parent="1" vertex="1">
                    <mxGeometry x="270" y="360.00350510316525" width="120" height="60" as="geometry"/>
                </mxCell>
                <mxCell id="101" value="Name" style="ellipse;whiteSpace=wrap;html=1;align=center;labelBackgroundColor=none;labelBorderColor=none;fontFamily=Helvetica;fontSize=10;fontColor=default;strokeColor=default;fillColor=default;" parent="1" vertex="1">
                    <mxGeometry x="140" y="520.0035051031653" width="100" height="40" as="geometry"/>
                </mxCell>
                <mxCell id="105" value="&lt;span style=&quot;font-size: 10px;&quot;&gt;Phone Number&lt;/span&gt;" style="ellipse;whiteSpace=wrap;html=1;align=center;fontStyle=0;labelBackgroundColor=none;labelBorderColor=none;fontFamily=Helvetica;fontSize=10;fontColor=default;strokeColor=default;fillColor=default;" parent="1" vertex="1">
                    <mxGeometry x="140" y="460.0035051031652" width="100" height="40" as="geometry"/>
                </mxCell>
                <mxCell id="106" value="&lt;u style=&quot;font-size: 10px;&quot;&gt;OHIP&amp;nbsp;&lt;/u&gt;&lt;u style=&quot;font-size: 10px;&quot;&gt;Number&lt;/u&gt;" style="ellipse;whiteSpace=wrap;html=1;align=center;fontStyle=4;labelBackgroundColor=none;labelBorderColor=none;fontFamily=Helvetica;fontSize=10;fontColor=default;strokeColor=default;fillColor=default;" parent="1" vertex="1">
                    <mxGeometry x="140" y="400.00350510316525" width="100" height="40" as="geometry"/>
                </mxCell>
                <mxCell id="108" value="Spouse" style="whiteSpace=wrap;html=1;align=center;labelBackgroundColor=none;labelBorderColor=none;fontFamily=Helvetica;fontSize=10;fontColor=default;strokeColor=default;fillColor=default;" parent="1" vertex="1">
                    <mxGeometry x="280" y="460.0035051031652" width="100" height="40" as="geometry"/>
                </mxCell>
                <mxCell id="115" value="N" style="edgeStyle=none;html=1;fontFamily=Helvetica;fontSize=10;fontColor=default;endArrow=none;endFill=0;noEdgeStyle=1;orthogonal=1;" parent="1" source="111" target="123" edge="1">
                    <mxGeometry relative="1" as="geometry">
                        <mxPoint x="1000" y="1032.4" as="targetPoint"/>
                        <Array as="points"/>
                    </mxGeometry>
                </mxCell>
                <mxCell id="116" value="M" style="edgeStyle=none;html=1;fontFamily=Helvetica;fontSize=10;fontColor=default;endArrow=none;endFill=0;noEdgeStyle=1;orthogonal=1;" parent="1" source="111" target="124" edge="1">
                    <mxGeometry relative="1" as="geometry">
                        <mxPoint x="980" y="272.4" as="targetPoint"/>
                        <Array as="points"/>
                    </mxGeometry>
                </mxCell>
                <mxCell id="111" value="Works at" style="shape=rhombus;perimeter=rhombusPerimeter;whiteSpace=wrap;html=1;align=center;labelBackgroundColor=none;labelBorderColor=none;fontFamily=Helvetica;fontSize=10;fontColor=default;strokeColor=default;fillColor=default;" parent="1" vertex="1">
                    <mxGeometry x="500" y="400.00350510316525" width="120" height="60" as="geometry"/>
                </mxCell>
                <mxCell id="113" value="N" style="edgeStyle=none;html=1;fontFamily=Helvetica;fontSize=10;fontColor=default;endArrow=none;endFill=0;noEdgeStyle=1;orthogonal=1;shape=link;" parent="1" source="112" target="122" edge="1">
                    <mxGeometry relative="1" as="geometry">
                        <mxPoint x="1000" y="1192.4" as="targetPoint"/>
                        <Array as="points"/>
                    </mxGeometry>
                </mxCell>
                <mxCell id="114" value="M" style="edgeStyle=none;html=1;fontFamily=Helvetica;fontSize=10;fontColor=default;endArrow=none;endFill=0;noEdgeStyle=1;orthogonal=1;" parent="1" source="112" target="124" edge="1">
                    <mxGeometry relative="1" as="geometry">
                        <mxPoint x="980" y="332.4" as="targetPoint"/>
                        <Array as="points"/>
                    </mxGeometry>
                </mxCell>
                <mxCell id="112" value="Works at" style="shape=rhombus;perimeter=rhombusPerimeter;whiteSpace=wrap;html=1;align=center;labelBackgroundColor=none;labelBorderColor=none;fontFamily=Helvetica;fontSize=10;fontColor=default;strokeColor=default;fillColor=default;" parent="1" vertex="1">
                    <mxGeometry x="640" y="400.00350510316525" width="120" height="60" as="geometry"/>
                </mxCell>
                <mxCell id="117" value="Medical Practice" style="whiteSpace=wrap;html=1;align=center;labelBackgroundColor=none;labelBorderColor=none;fontFamily=Helvetica;fontSize=10;fontColor=default;strokeColor=default;fillColor=default;" parent="1" vertex="1">
                    <mxGeometry x="510" y="640.0035051031653" width="100" height="40" as="geometry"/>
                </mxCell>
                <mxCell id="119" value="Name" style="ellipse;whiteSpace=wrap;html=1;align=center;fontStyle=4;labelBackgroundColor=none;labelBorderColor=none;fontFamily=Helvetica;fontSize=10;fontColor=default;strokeColor=default;fillColor=default;" parent="1" vertex="1">
                    <mxGeometry x="390" y="610.0035051031653" width="100" height="40" as="geometry"/>
                </mxCell>
                <mxCell id="120" value="Phone Number" style="ellipse;whiteSpace=wrap;html=1;align=center;fontStyle=0;labelBackgroundColor=none;labelBorderColor=none;fontFamily=Helvetica;fontSize=10;fontColor=default;strokeColor=default;fillColor=default;" parent="1" vertex="1">
                    <mxGeometry x="390" y="670.0035051031653" width="100" height="40" as="geometry"/>
                </mxCell>
                <mxCell id="121" value="Works with" style="shape=rhombus;perimeter=rhombusPerimeter;whiteSpace=wrap;html=1;align=center;labelBackgroundColor=none;labelBorderColor=none;fontFamily=Helvetica;fontSize=10;fontColor=default;strokeColor=default;fillColor=default;" parent="1" vertex="1">
                    <mxGeometry x="500" y="560.0035051031653" width="120" height="60" as="geometry"/>
                </mxCell>
                <mxCell id="150" style="edgeStyle=none;html=1;fontFamily=Helvetica;fontSize=10;fontColor=default;endArrow=none;endFill=0;" parent="1" source="122" target="128" edge="1">
                    <mxGeometry relative="1" as="geometry">
                        <Array as="points">
                            <mxPoint x="700" y="580"/>
                        </Array>
                    </mxGeometry>
                </mxCell>
                <mxCell id="122" value="Nurse" style="whiteSpace=wrap;html=1;align=center;labelBackgroundColor=none;labelBorderColor=none;fontFamily=Helvetica;fontSize=10;fontColor=default;strokeColor=default;fillColor=default;" parent="1" vertex="1">
                    <mxGeometry x="650" y="500.00350510316525" width="100" height="40" as="geometry"/>
                </mxCell>
                <mxCell id="151" value="Total" style="edgeStyle=none;html=1;fontFamily=Helvetica;fontSize=10;fontColor=default;endArrow=none;endFill=0;" parent="1" source="123" target="128" edge="1">
                    <mxGeometry relative="1" as="geometry">
                        <Array as="points">
                            <mxPoint x="700" y="580"/>
                        </Array>
                    </mxGeometry>
                </mxCell>
                <mxCell id="123" value="Doctor" style="whiteSpace=wrap;html=1;align=center;labelBackgroundColor=none;labelBorderColor=none;fontFamily=Helvetica;fontSize=10;fontColor=default;strokeColor=default;fillColor=default;" parent="1" vertex="1">
                    <mxGeometry x="510" y="500.00350510316525" width="100" height="40" as="geometry"/>
                </mxCell>
                <mxCell id="124" value="Vaccination Clinic" style="whiteSpace=wrap;html=1;align=center;labelBackgroundColor=none;labelBorderColor=none;fontFamily=Helvetica;fontSize=10;fontColor=default;strokeColor=default;fillColor=default;" parent="1" vertex="1">
                    <mxGeometry x="580" y="280.0035051031652" width="100" height="40" as="geometry"/>
                </mxCell>
                <mxCell id="126" value="&lt;u style=&quot;font-size: 10px;&quot;&gt;Name&lt;/u&gt;" style="ellipse;whiteSpace=wrap;html=1;align=center;fontStyle=4;labelBackgroundColor=none;labelBorderColor=none;fontFamily=Helvetica;fontSize=10;fontColor=default;strokeColor=default;fillColor=default;" parent="1" vertex="1">
                    <mxGeometry x="720" y="220.00350510316525" width="100" height="40" as="geometry"/>
                </mxCell>
                <mxCell id="181" style="edgeStyle=none;html=1;endArrow=none;endFill=0;" edge="1" parent="1" source="127" target="180">
                    <mxGeometry relative="1" as="geometry"/>
                </mxCell>
                <mxCell id="127" value="Address" style="ellipse;whiteSpace=wrap;html=1;align=center;labelBackgroundColor=none;labelBorderColor=none;fontFamily=Helvetica;fontSize=10;fontColor=default;strokeColor=default;fillColor=default;" parent="1" vertex="1">
                    <mxGeometry x="720" y="340.00350510316525" width="100" height="40" as="geometry"/>
                </mxCell>
                <mxCell id="153" value="" style="edgeStyle=none;html=1;fontFamily=Helvetica;fontSize=10;fontColor=default;endArrow=none;endFill=0;rounded=1;" parent="1" source="128" target="122" edge="1">
                    <mxGeometry relative="1" as="geometry"/>
                </mxCell>
                <mxCell id="128" value="Healthcare Worker" style="whiteSpace=wrap;html=1;align=center;labelBackgroundColor=none;labelBorderColor=none;fontFamily=Helvetica;fontSize=10;fontColor=default;strokeColor=default;fillColor=default;" parent="1" vertex="1">
                    <mxGeometry x="650" y="620.0035051031653" width="100" height="40" as="geometry"/>
                </mxCell>
                <mxCell id="129" value="Name" style="ellipse;whiteSpace=wrap;html=1;align=center;labelBackgroundColor=none;labelBorderColor=none;fontFamily=Helvetica;fontSize=10;fontColor=default;strokeColor=default;fillColor=default;" parent="1" vertex="1">
                    <mxGeometry x="770" y="680.0035051031653" width="100" height="40" as="geometry"/>
                </mxCell>
                <mxCell id="131" value="&lt;u style=&quot;font-size: 10px&quot;&gt;ID&lt;/u&gt;" style="ellipse;whiteSpace=wrap;html=1;align=center;fontStyle=4;labelBackgroundColor=none;labelBorderColor=none;fontFamily=Helvetica;fontSize=10;fontColor=default;strokeColor=default;fillColor=default;" parent="1" vertex="1">
                    <mxGeometry x="770" y="560.0035051031653" width="100" height="40" as="geometry"/>
                </mxCell>
                <mxCell id="145" value="N" style="edgeStyle=none;html=1;fontFamily=Helvetica;fontSize=10;fontColor=default;endArrow=none;endFill=0;" parent="1" source="134" target="124" edge="1">
                    <mxGeometry relative="1" as="geometry"/>
                </mxCell>
                <mxCell id="134" value="Ships to" style="shape=rhombus;perimeter=rhombusPerimeter;whiteSpace=wrap;html=1;align=center;labelBackgroundColor=none;labelBorderColor=none;fontFamily=Helvetica;fontSize=10;fontColor=default;strokeColor=default;fillColor=default;" parent="1" vertex="1">
                    <mxGeometry x="570" y="200.0035051031652" width="120" height="60" as="geometry"/>
                </mxCell>
                <mxCell id="135" value="Produces" style="shape=rhombus;perimeter=rhombusPerimeter;whiteSpace=wrap;html=1;align=center;labelBackgroundColor=none;labelBorderColor=none;fontFamily=Helvetica;fontSize=10;fontColor=default;strokeColor=default;fillColor=default;" parent="1" vertex="1">
                    <mxGeometry x="420" y="130.00350510316514" width="120" height="60" as="geometry"/>
                </mxCell>
                <mxCell id="136" value="Vaccine Lot" style="whiteSpace=wrap;html=1;align=center;labelBackgroundColor=none;labelBorderColor=none;fontFamily=Helvetica;fontSize=10;fontColor=default;strokeColor=default;fillColor=default;" parent="1" vertex="1">
                    <mxGeometry x="580" y="140.0035051031652" width="100" height="40" as="geometry"/>
                </mxCell>
                <mxCell id="137" value="Doses Count" style="ellipse;whiteSpace=wrap;html=1;align=center;labelBackgroundColor=none;labelBorderColor=none;fontFamily=Helvetica;fontSize=10;fontColor=default;strokeColor=default;fillColor=default;" parent="1" vertex="1">
                    <mxGeometry x="640" y="80.00350510316514" width="100" height="40" as="geometry"/>
                </mxCell>
                <mxCell id="138" value="Production Date" style="ellipse;whiteSpace=wrap;html=1;align=center;labelBackgroundColor=none;labelBorderColor=none;fontFamily=Helvetica;fontSize=10;fontColor=default;strokeColor=default;fillColor=default;" parent="1" vertex="1">
                    <mxGeometry x="520" y="80.0035051031652" width="100" height="40" as="geometry"/>
                </mxCell>
                <mxCell id="140" value="&lt;u style=&quot;font-size: 10px;&quot;&gt;Lot Number&lt;/u&gt;" style="ellipse;whiteSpace=wrap;html=1;align=center;fontStyle=4;labelBackgroundColor=none;labelBorderColor=none;fontFamily=Helvetica;fontSize=10;fontColor=default;strokeColor=default;fillColor=default;" parent="1" vertex="1">
                    <mxGeometry x="400" y="80.0035051031652" width="100" height="40" as="geometry"/>
                </mxCell>
                <mxCell id="139" value="Expiry Date" style="ellipse;whiteSpace=wrap;html=1;align=center;labelBackgroundColor=none;labelBorderColor=none;fontFamily=Helvetica;fontSize=10;fontColor=default;strokeColor=default;fillColor=default;" parent="1" vertex="1">
                    <mxGeometry x="760" y="80.0035051031652" width="100" height="40" as="geometry"/>
                </mxCell>
                <mxCell id="149" value="Credentials" style="ellipse;shape=doubleEllipse;margin=3;whiteSpace=wrap;html=1;align=center;labelBackgroundColor=none;labelBorderColor=none;fontFamily=Helvetica;fontSize=10;fontColor=default;strokeColor=default;fillColor=default;" parent="1" vertex="1">
                    <mxGeometry x="770" y="620" width="100" height="40" as="geometry"/>
                </mxCell>
                <mxCell id="156" value="Street" style="ellipse;whiteSpace=wrap;html=1;align=center;labelBackgroundColor=none;labelBorderColor=none;fontSize=10;" vertex="1" parent="1">
                    <mxGeometry x="20" y="20.00350510316514" width="100" height="40" as="geometry"/>
                </mxCell>
                <mxCell id="157" value="City" style="ellipse;whiteSpace=wrap;html=1;align=center;labelBackgroundColor=none;labelBorderColor=none;fontSize=10;" vertex="1" parent="1">
                    <mxGeometry x="20" y="80.00350510316514" width="100" height="40" as="geometry"/>
                </mxCell>
                <mxCell id="158" value="Province" style="ellipse;whiteSpace=wrap;html=1;align=center;labelBackgroundColor=none;labelBorderColor=none;fontSize=10;" vertex="1" parent="1">
                    <mxGeometry x="20" y="140.00350510316514" width="100" height="40" as="geometry"/>
                </mxCell>
                <mxCell id="163" style="edgeStyle=none;html=1;endArrow=none;endFill=0;" edge="1" parent="1" source="159" target="88">
                    <mxGeometry relative="1" as="geometry"/>
                </mxCell>
                <mxCell id="159" value="Postal Code" style="ellipse;whiteSpace=wrap;html=1;align=center;labelBackgroundColor=none;labelBorderColor=none;fontSize=10;" vertex="1" parent="1">
                    <mxGeometry x="140" y="20.00350510316514" width="100" height="40" as="geometry"/>
                </mxCell>
                <mxCell id="166" style="edgeStyle=none;html=1;endArrow=none;endFill=0;" edge="1" parent="1" source="164" target="90">
                    <mxGeometry relative="1" as="geometry"/>
                </mxCell>
                <mxCell id="164" value="First Name" style="ellipse;whiteSpace=wrap;html=1;align=center;labelBackgroundColor=none;labelBorderColor=none;fontSize=10;" vertex="1" parent="1">
                    <mxGeometry x="20" y="250.00350510316514" width="100" height="40" as="geometry"/>
                </mxCell>
                <mxCell id="167" style="edgeStyle=none;html=1;endArrow=none;endFill=0;" edge="1" parent="1" source="165" target="90">
                    <mxGeometry relative="1" as="geometry"/>
                </mxCell>
                <mxCell id="165" value="Last Name" style="ellipse;whiteSpace=wrap;html=1;align=center;labelBackgroundColor=none;labelBorderColor=none;fontSize=10;" vertex="1" parent="1">
                    <mxGeometry x="20" y="310.00350510316514" width="100" height="40" as="geometry"/>
                </mxCell>
                <mxCell id="170" style="edgeStyle=none;html=1;endArrow=none;endFill=0;" edge="1" parent="1" source="168" target="101">
                    <mxGeometry relative="1" as="geometry"/>
                </mxCell>
                <mxCell id="168" value="First Name" style="ellipse;whiteSpace=wrap;html=1;align=center;labelBackgroundColor=none;labelBorderColor=none;fontSize=10;" vertex="1" parent="1">
                    <mxGeometry x="20" y="490.00350510316514" width="100" height="40" as="geometry"/>
                </mxCell>
                <mxCell id="171" style="edgeStyle=none;html=1;endArrow=none;endFill=0;" edge="1" parent="1" source="169" target="101">
                    <mxGeometry relative="1" as="geometry"/>
                </mxCell>
                <mxCell id="169" value="Last Name" style="ellipse;whiteSpace=wrap;html=1;align=center;labelBackgroundColor=none;labelBorderColor=none;fontSize=10;" vertex="1" parent="1">
                    <mxGeometry x="20" y="550.0035051031651" width="100" height="40" as="geometry"/>
                </mxCell>
                <mxCell id="173" style="edgeStyle=none;html=1;endArrow=none;endFill=0;" edge="1" parent="1" source="172" target="99">
                    <mxGeometry relative="1" as="geometry"/>
                </mxCell>
                <mxCell id="172" value="Date" style="ellipse;whiteSpace=wrap;html=1;align=center;" vertex="1" parent="1">
                    <mxGeometry x="430" y="210" width="100" height="40" as="geometry"/>
                </mxCell>
                <mxCell id="174" value="Time" style="ellipse;whiteSpace=wrap;html=1;align=center;" vertex="1" parent="1">
                    <mxGeometry x="430" y="350" width="100" height="40" as="geometry"/>
                </mxCell>
                <mxCell id="182" style="edgeStyle=none;html=1;endArrow=none;endFill=0;" edge="1" parent="1" source="177" target="127">
                    <mxGeometry relative="1" as="geometry"/>
                </mxCell>
                <mxCell id="177" value="Street" style="ellipse;whiteSpace=wrap;html=1;align=center;labelBackgroundColor=none;labelBorderColor=none;fontSize=10;" vertex="1" parent="1">
                    <mxGeometry x="840" y="310.00350510316514" width="100" height="40" as="geometry"/>
                </mxCell>
                <mxCell id="183" style="edgeStyle=none;html=1;endArrow=none;endFill=0;" edge="1" parent="1" source="178" target="127">
                    <mxGeometry relative="1" as="geometry"/>
                </mxCell>
                <mxCell id="178" value="City" style="ellipse;whiteSpace=wrap;html=1;align=center;labelBackgroundColor=none;labelBorderColor=none;fontSize=10;" vertex="1" parent="1">
                    <mxGeometry x="840" y="370.00350510316514" width="100" height="40" as="geometry"/>
                </mxCell>
                <mxCell id="184" style="edgeStyle=none;html=1;endArrow=none;endFill=0;" edge="1" parent="1" source="179" target="127">
                    <mxGeometry relative="1" as="geometry"/>
                </mxCell>
                <mxCell id="179" value="Province" style="ellipse;whiteSpace=wrap;html=1;align=center;labelBackgroundColor=none;labelBorderColor=none;fontSize=10;" vertex="1" parent="1">
                    <mxGeometry x="840" y="430.00350510316514" width="100" height="40" as="geometry"/>
                </mxCell>
                <mxCell id="180" value="Postal Code" style="ellipse;whiteSpace=wrap;html=1;align=center;labelBackgroundColor=none;labelBorderColor=none;fontSize=10;" vertex="1" parent="1">
                    <mxGeometry x="840" y="250.00350510316514" width="100" height="40" as="geometry"/>
                </mxCell>
                <mxCell id="188" style="edgeStyle=none;html=1;endArrow=none;endFill=0;" edge="1" parent="1" source="186" target="129">
                    <mxGeometry relative="1" as="geometry"/>
                </mxCell>
                <mxCell id="186" value="First Name" style="ellipse;whiteSpace=wrap;html=1;align=center;labelBackgroundColor=none;labelBorderColor=none;fontSize=10;" vertex="1" parent="1">
                    <mxGeometry x="890" y="650.0035051031651" width="100" height="40" as="geometry"/>
                </mxCell>
                <mxCell id="189" style="edgeStyle=none;html=1;endArrow=none;endFill=0;" edge="1" parent="1" source="187" target="129">
                    <mxGeometry relative="1" as="geometry"/>
                </mxCell>
                <mxCell id="187" value="Last Name" style="ellipse;whiteSpace=wrap;html=1;align=center;labelBackgroundColor=none;labelBorderColor=none;fontSize=10;" vertex="1" parent="1">
                    <mxGeometry x="890" y="710.0035051031651" width="100" height="40" as="geometry"/>
                </mxCell>
            </root>
        </mxGraphModel>
    </diagram>
</mxfile>
